HIERARCHY
ROOT Hips
{
  OFFSET 265.287 66.7526 -254.649
  CHANNELS 6 Xposition Yposition Zposition Zrotation Xrotation Yrotation
  JOINT LeftUpLeg
  {
    OFFSET 8.64259 1.95398 -2.38835
    CHANNELS 3 Zrotation Xrotation Yrotation
    JOINT LeftLeg
    {
      OFFSET 43.7702 0 0
      CHANNELS 3 Zrotation Xrotation Yrotation
      JOINT LeftFoot
      {
        OFFSET 40.6238 0 0
        CHANNELS 3 Zrotation Xrotation Yrotation
        JOINT LeftToeBase
        {
          OFFSET 12.7242 0 0
          CHANNELS 3 Zrotation Xrotation Yrotation
          End Site
          {
            OFFSET 0 0 0
          }
        }
      }
    }
  }
  JOINT RightUpLeg
  {
    OFFSET -8.2249 1.95398 -2.59336
    CHANNELS 3 Zrotation Xrotation Yrotation
    JOINT RightLeg
    {
      OFFSET 43.5653 0 0
      CHANNELS 3 Zrotation Xrotation Yrotation
      JOINT RightFoot
      {
        OFFSET 40.6238 0 0
        CHANNELS 3 Zrotation Xrotation Yrotation
        JOINT RightToeBase
        {
          OFFSET 12.7242 0 0
          CHANNELS 3 Zrotation Xrotation Yrotation
          End Site
          {
            OFFSET 0 0 0
          }
        }
      }
    }
  }
  JOINT Spine
  {
    OFFSET 0.165834 0.87714 6.61349
    CHANNELS 3 Zrotation Xrotation Yrotation
    JOINT Spine1
    {
      OFFSET 7.38963 1.71661e-005 0
      CHANNELS 3 Zrotation Xrotation Yrotation
      JOINT Spine2
      {
        OFFSET 11.9445 1.14441e-005 0
        CHANNELS 3 Zrotation Xrotation Yrotation
        JOINT Spine3
        {
          OFFSET 14.7254 4.19617e-005 0
          CHANNELS 3 Zrotation Xrotation Yrotation
          JOINT Spine4
          {
            OFFSET 10.9679 0 0
            CHANNELS 3 Zrotation Xrotation Yrotation
            JOINT RightShoulder
            {
              OFFSET 2.46616 -1.6653 3.69651
              CHANNELS 3 Zrotation Xrotation Yrotation
              JOINT RightArm
              {
                OFFSET 13.0012 0 0
                CHANNELS 3 Zrotation Xrotation Yrotation
                JOINT RightForeArm
                {
                  OFFSET 28.7848 1.52588e-005 0
                  CHANNELS 3 Zrotation Xrotation Yrotation
                  JOINT RightHand
                  {
                    OFFSET 26.5688 1.52588e-005 0
                    CHANNELS 3 Zrotation Xrotation Yrotation
                    End Site
                    {
                      OFFSET 0 0 0
                    }
                  }
                }
              }
            }
            JOINT LeftShoulder
            {
              OFFSET 2.38034 -1.29275 -3.7523
              CHANNELS 3 Zrotation Xrotation Yrotation
              JOINT LeftArm
              {
                OFFSET 16.3182 6.10351e-005 0
                CHANNELS 3 Zrotation Xrotation Yrotation
                JOINT LeftForeArm
                {
                  OFFSET 27.0901 0 0
                  CHANNELS 3 Zrotation Xrotation Yrotation
                  JOINT LeftHand
                  {
                    OFFSET 24.5451 1.52588e-005 0
                    CHANNELS 3 Zrotation Xrotation Yrotation
                    End Site
                    {
                      OFFSET 0 0 0
                    }
                  }
                }
              }
            }
            JOINT Neck
            {
              OFFSET 5.0226 -0.0266342 0
              CHANNELS 3 Zrotation Xrotation Yrotation
              JOINT Head
              {
                OFFSET 6.69364 2.86102e-005 0
                CHANNELS 3 Zrotation Xrotation Yrotation
                End Site
                {
                  OFFSET 0 0 0
                }
              }
            }
          }
        }
      }
    }
  }
}
MOTION
Frames:	12
Frame Time:	0.0416667
-7.67711 96.8201 6.47816 137.482 -86.4789 137.17 -173.973 0.930102 91.047 -13.9248 8.3623 3.05523 66.1436 2.70318 -0.247358 30.4734 -0.620667 0.963277 174.655 1.79658 86.8103 -13.88 -7.26334 -0.870701 66.3288 -2.31856 2.78721 29.216 -0.0274413 -0.323431 -0.273328 7.10995 -90.191 12.6532 -0.634049 -0.307203 0.982339 -0.64695 -0.279008 -21.5534 -0.512415 -0.483558 -1.54075 -0.512407 -0.483559 100.52 -52.0678 -84.6677 28.6544 -3.78635 -6.68565 3.13971 -0.978438 -10.2522 -21.4176 -0.913319 -0.265737 -83.7946 -49.8843 87.8274 -28.9623 12.747 -16.9803 2.49291 17.7494 -6.14889 4.75845 -0.0285753 -3.37564 10.4446 -1.60925 4.40669 -12.5281 -2.10135 -6.17587 
-7.63943 96.809 6.45716 136.663 -86.7705 136.673 -173.889 0.974723 91.305 -13.4468 8.25825 3.14632 66.3874 2.80691 -0.459424 30.3367 -0.587438 1.04392 174.868 1.87225 87.1373 -13.478 -7.20172 -0.870457 65.9093 -2.159 2.79625 29.535 -0.10947 -0.00359975 -0.25375 7.0882 -90.2313 12.6964 -0.614391 -0.389691 1.02551 -0.630955 -0.362275 -21.5099 -0.468879 -0.556327 -1.49728 -0.468875 -0.556331 100.479 -51.9378 -84.735 28.8165 -3.94524 -6.6 3.29541 -0.370521 -10.5013 -21.6164 -0.93125 -0.215324 -83.9042 -50.0024 87.6744 -28.6244 12.9571 -16.9854 2.25473 17.2901 -6.08046 4.51167 -0.0403497 -3.53691 10.1104 -1.53987 4.33116 -11.6716 -2.05728 -6.06948 
-7.61988 96.8111 6.44198 136.536 -86.8717 136.57 -173.899 1.11244 91.2829 -13.5874 7.94655 3.13328 66.4822 2.79891 -0.570383 30.2293 -0.561138 1.10415 174.892 1.966 87.155 -13.474 -7.10944 -0.870599 65.9455 -2.1823 2.86573 29.4434 -0.10082 0.0401868 -0.24728 7.08849 -90.243 12.6957 -0.607207 -0.413907 1.02483 -0.624829 -0.386792 -21.5105 -0.454741 -0.577262 -1.49786 -0.454735 -0.577263 100.481 -51.8446 -84.7337 28.8936 -3.93887 -6.6356 3.29028 -0.265037 -10.5688 -21.6216 -0.974579 0.015086 -83.8599 -50.1887 87.7615 -28.5021 13.0306 -17.009 2.19016 16.9986 -6.10418 4.75247 -0.0387731 -3.53823 10.2427 -1.43403 4.82731 -11.725 -2.02455 -6.67541 
-7.62266 96.8146 6.43362 136.352 -86.8462 136.378 -173.889 1.17651 91.2874 -13.7167 7.87659 3.1224 66.432 2.74561 -0.623772 30.2614 -0.538626 0.781642 174.881 1.96157 87.1491 -13.4918 -6.93512 -0.865524 66.0636 -2.21906 2.99639 29.1564 -0.0490721 -0.0510315 -0.249403 7.1041 -90.2376 12.6645 -0.608796 -0.40322 0.993682 -0.62595 -0.376042 -21.5417 -0.45947 -0.567695 -1.52905 -0.45947 -0.567693 100.499 -51.8344 -84.7065 28.9243 -4.03127 -6.72925 3.41815 -0.0448482 -10.4435 -22.0335 -0.918679 -0.378451 -83.8491 -50.2239 87.7815 -28.4715 13.0522 -16.9981 2.18281 16.6203 -6.16313 5.14161 -0.0295003 -3.44356 10.5067 -1.39863 4.40904 -11.793 -1.94524 -6.06183 
-7.60313 96.802 6.4212 135.372 -86.8792 135.405 -173.918 1.15645 91.2661 -13.5135 7.94253 3.14259 66.4115 2.79605 -0.403155 30.2803 -0.524936 0.586224 174.862 2.05115 87.128 -13.5207 -6.7703 -0.835379 66.1772 -2.22408 3.21832 28.9941 -0.0366976 0.0500646 -0.252836 7.10556 -90.2347 12.6616 -0.614195 -0.396876 0.990756 -0.631071 -0.369464 -21.5446 -0.466532 -0.55867 -1.53198 -0.466527 -0.558666 100.512 -51.9184 -84.6854 28.809 -4.22159 -6.7164 3.57967 0.374618 -10.5782 -22.241 -0.971361 -0.14999 -83.7461 -50.2368 87.9383 -28.5701 12.9043 -17.0126 2.37059 17.2224 -6.2227 5.01658 -0.0397427 -3.58325 10.4417 -1.32416 4.46444 -11.8217 -1.87772 -6.10921 
-7.59402 96.8048 6.39945 134.082 -86.8888 134.083 -173.908 1.26563 91.2419 -13.6032 8.0909 3.10222 66.4726 2.82496 -0.277014 30.1395 -0.463777 0.407021 174.88 2.14606 87.1172 -13.5816 -6.55706 -0.859066 66.1737 -2.21774 3.12731 29.0241 -0.0955806 0.53482 -0.253716 7.12318 -90.2322 12.6264 -0.614667 -0.391899 0.955565 -0.631323 -0.364468 -21.5799 -0.468482 -0.558656 -1.56722 -0.468471 -0.558653 100.44 -51.9869 -84.7915 28.7689 -4.05736 -6.69958 3.40333 -0.21379 -10.7229 -22.1404 -1.03025 0.183507 -83.7427 -50.0397 87.9228 -28.8622 12.8359 -17.0359 2.49593 17.411 -6.25364 5.19424 -0.0318909 -3.48778 10.6761 -1.32867 4.3587 -11.9469 -1.88161 -5.8155 
-7.59296 96.7982 6.37008 132.303 -86.8384 132.233 -173.975 1.33968 91.1556 -13.6721 8.49403 3.10464 66.3136 2.76264 -0.321946 30.3935 -0.628615 1.28607 174.861 2.24247 87.0508 -13.6702 -6.34511 -0.866616 66.237 -2.15324 3.40767 28.9525 -0.0451022 0.177467 -0.272703 7.13143 -90.2286 12.6099 -0.650684 -0.380686 0.939063 -0.666811 -0.351689 -21.5965 -0.506197 -0.558647 -1.58387 -0.506191 -0.558647 100.27 -51.8804 -85.0546 28.8584 -3.9903 -6.6445 3.35624 -0.377069 -10.6151 -22.0587 -1.0111 0.105088 -83.716 -49.9608 87.9549 -28.939 13.0198 -16.946 2.37015 17.1037 -6.26752 5.78984 -0.0219066 -3.40574 10.3677 -1.44086 4.08883 -11.8375 -1.95483 -5.38449 
-7.57448 96.8066 6.3613 131.813 -86.8111 131.788 -173.94 1.35033 91.1991 -13.63 8.38679 3.10372 66.303 2.78004 -0.212796 30.3445 -0.572421 0.868636 174.921 2.16269 87.1156 -13.5162 -6.15752 -0.911213 66.2327 -2.1632 3.46804 28.7847 -0.0375239 0.321445 -0.264656 7.15468 -90.2431 12.5633 -0.641569 -0.411069 0.89248 -0.659038 -0.382441 -21.643 -0.488364 -0.584879 -1.63032 -0.488371 -0.584884 100.337 -51.5768 -84.9629 29.1674 -4.00566 -6.70908 3.3592 -0.224328 -10.5326 -21.8571 -0.99399 0.0628329 -83.7392 -50.0906 87.9332 -28.7764 13.0768 -17.0452 2.33439 17.2512 -6.23865 5.79056 -0.0309845 -3.53526 10.1736 -1.47417 4.05386 -11.4521 -1.99858 -5.28475 
-7.57039 96.7849 6.33902 130.989 -86.8732 130.902 -173.967 1.47346 91.135 -13.6976 8.10276 3.06662 66.3781 2.7576 -0.403043 30.2939 -0.538908 0.684891 174.852 2.38701 87.0208 -13.7603 -6.27477 -0.853639 66.3314 -2.17494 3.38101 28.9083 -0.0489234 0.267162 -0.255097 7.16529 -90.2422 12.5421 -0.622115 -0.411729 0.871267 -0.639637 -0.383945 -21.6641 -0.469623 -0.579666 -1.65148 -0.469616 -0.57966 100.339 -51.5483 -84.9611 29.1389 -3.92368 -6.7369 3.2087 -0.590815 -10.3768 -21.4944 -0.987748 0.119419 -83.8797 -50.2514 87.7383 -28.5782 13.1052 -17.0046 2.28397 17.1542 -6.2368 5.95284 -0.0151858 -3.33483 9.80347 -1.38745 4.76509 -11.5175 -1.98722 -6.28688 
-7.58985 96.8069 6.30479 132.537 -86.8919 132.495 -173.925 1.41508 91.2112 -13.6471 8.45854 3.07066 66.3697 2.76678 -0.49833 30.1075 -0.553525 1.3907 174.857 2.27018 87.0672 -13.5531 -6.47145 -0.836892 66.1347 -2.14311 3.23301 28.9354 -0.060484 0.334718 -0.25134 7.18798 -90.2542 12.4966 -0.620306 -0.436067 0.825784 -0.638897 -0.408357 -21.7095 -0.46057 -0.602328 -1.69687 -0.460574 -0.602341 100.401 -51.4979 -84.8671 29.2171 -3.77344 -6.98793 3.17155 -0.520612 -10.0923 -21.5098 -0.979891 0.0738371 -83.7666 -49.9032 87.8721 -29.1047 12.957 -17.0226 2.57406 18.1524 -6.34564 5.53944 -0.0346679 -3.56223 8.28042 -1.41221 4.29865 -10.9515 -1.976 -4.87965 
-7.62544 96.8326 6.20527 130.305 -86.7381 130.131 -174.12 1.44431 91.0367 -13.5697 8.20869 3.16016 66.0843 2.67783 -0.673114 30.2479 -0.586773 1.30807 174.839 2.30857 86.9843 -13.552 -6.50518 -0.870094 66.0132 -2.10658 3.17284 29.1179 -0.0750121 0.232168 -0.276746 7.20624 -90.2468 12.4601 -0.667261 -0.416322 0.789269 -0.68494 -0.386549 -21.7462 -0.511292 -0.597614 -1.73359 -0.511299 -0.597616 100.617 -51.4373 -84.5388 29.1354 -3.88242 -7.30048 3.26769 -0.383309 -10.071 -21.7836 -0.952679 -0.141136 -83.6827 -49.6548 87.9732 -29.1346 13.5613 -17.2487 2.89454 20.7147 -7.09145 5.49727 -0.00536709 -3.11122 5.48892 -1.37077 3.94531 -10.7977 -1.84702 -3.73033 
-7.66577 96.8659 6.06179 123.104 -86.6873 123.076 -174.163 1.873 91.1534 -13.5306 8.32009 3.24215 65.879 2.60979 -0.836421 30.4607 -0.64267 1.22751 174.948 2.48071 87.1969 -13.192 -6.551 -0.815806 65.6594 -2.07019 2.7947 29.1688 -0.0604006 0.0351962 -0.286844 7.23499 -90.2638 12.4025 -0.695283 -0.447449 0.731691 -0.714298 -0.416423 -21.8038 -0.528671 -0.635724 -1.79116 -0.528663 -0.635719 100.918 -51.4486 -84.0773 28.9998 -4.1343 -7.94423 3.36849 -0.271735 -10.2329 -21.9264 -0.945824 -0.210895 -83.7676 -49.1831 87.7933 -29.481 13.6435 -17.9387 3.67832 23.8795 -7.7171 4.91947 0.00260629 -2.91165 2.80208 -1.2515 3.04965 -12.802 -1.60523 -1.69224 
